<svg xmlns="http://www.w3.org/2000/svg" xmlns:xlink="http://www.w3.org/1999/xlink" width="500" zoomAndPan="magnify" viewBox="0 0 375 374.999991" height="500" preserveAspectRatio="xMidYMid meet" version="1.0"><defs><clipPath id="id1"><path d="M 44.570312 44.570312 L 328.820312 44.570312 L 328.820312 330.320312 L 44.570312 330.320312 Z M 44.570312 44.570312 " clip-rule="nonzero"/></clipPath><clipPath id="id2"><path d="M 43.070312 175 L 61 175 L 61 231 L 43.070312 231 Z M 43.070312 175 " clip-rule="nonzero"/></clipPath><clipPath id="id3"><path d="M 170 32.25 L 283 32.25 L 283 63 L 170 63 Z M 170 32.25 " clip-rule="nonzero"/></clipPath><clipPath id="id4"><path d="M 100 279 L 181 279 L 181 324.75 L 100 324.75 Z M 100 279 " clip-rule="nonzero"/></clipPath><clipPath id="id5"><path d="M 43.070312 146 L 110 146 L 110 213 L 43.070312 213 Z M 43.070312 146 " clip-rule="nonzero"/></clipPath><clipPath id="id6"><path d="M 109 126 L 343.070312 126 L 343.070312 189 L 109 189 Z M 109 126 " clip-rule="nonzero"/></clipPath></defs><g clip-path="url(#id1)"><path fill="#5ce1e6" d="M 328.710938 176.457031 C 328.714844 176.351562 328.695312 176.253906 328.664062 176.160156 C 328.660156 176.152344 328.664062 176.148438 328.660156 176.140625 L 300.335938 101.625 C 300.332031 101.613281 300.320312 101.609375 300.316406 101.597656 C 300.269531 101.488281 300.203125 101.382812 300.105469 101.304688 L 237.8125 51.667969 C 237.714844 51.585938 237.597656 51.53125 237.46875 51.507812 C 237.457031 51.507812 237.449219 51.503906 237.4375 51.503906 L 186.59375 44.578125 C 186.492188 44.566406 186.386719 44.574219 186.289062 44.597656 L 162.054688 51.496094 L 161.367188 51.496094 C 161.226562 51.496094 161.097656 51.535156 160.984375 51.605469 C 160.980469 51.605469 160.980469 51.605469 160.980469 51.605469 L 160.363281 51.976562 L 100.71875 68.960938 C 100.699219 68.96875 100.6875 68.984375 100.667969 68.992188 C 100.585938 69.019531 100.515625 69.0625 100.449219 69.117188 C 100.421875 69.140625 100.394531 69.160156 100.371094 69.1875 C 100.359375 69.199219 100.339844 69.207031 100.328125 69.222656 L 48.097656 137.152344 C 48.078125 137.171875 48.078125 137.195312 48.0625 137.21875 C 48.042969 137.25 48.019531 137.273438 48.007812 137.308594 C 48 137.328125 47.996094 137.351562 47.988281 137.371094 C 47.976562 137.414062 47.96875 137.453125 47.960938 137.496094 C 47.957031 137.519531 47.945312 137.539062 47.945312 137.566406 L 44.65625 197.304688 C 44.652344 197.359375 44.65625 197.414062 44.660156 197.464844 L 49.476562 227.679688 C 49.484375 227.71875 49.503906 227.75 49.515625 227.789062 C 49.523438 227.816406 49.523438 227.84375 49.535156 227.867188 C 49.535156 227.871094 49.542969 227.875 49.546875 227.882812 C 49.546875 227.890625 49.546875 227.898438 49.554688 227.90625 L 73.871094 274.308594 C 73.914062 274.390625 73.96875 274.460938 74.039062 274.523438 L 102.558594 299.785156 C 102.605469 299.835938 102.65625 299.882812 102.714844 299.917969 L 135.695312 322.1875 C 135.785156 322.25 135.890625 322.289062 136 322.304688 L 187.742188 330.367188 L 187.75 330.367188 C 187.75 330.367188 187.753906 330.367188 187.753906 330.367188 C 187.757812 330.367188 187.757812 330.367188 187.761719 330.367188 C 187.800781 330.375 187.835938 330.378906 187.875 330.378906 C 187.875 330.378906 187.875 330.378906 187.878906 330.378906 C 187.929688 330.378906 187.980469 330.371094 188.03125 330.363281 C 188.03125 330.363281 188.03125 330.363281 188.03125 330.359375 C 188.035156 330.359375 188.035156 330.359375 188.035156 330.359375 C 188.035156 330.359375 188.035156 330.359375 188.039062 330.359375 C 188.039062 330.359375 188.039062 330.359375 188.042969 330.359375 C 188.042969 330.355469 188.046875 330.355469 188.054688 330.355469 C 188.054688 330.355469 188.058594 330.355469 188.058594 330.355469 L 188.0625 330.351562 C 188.066406 330.351562 188.066406 330.351562 188.066406 330.351562 C 188.066406 330.351562 188.066406 330.351562 188.070312 330.351562 C 188.070312 330.351562 188.070312 330.347656 188.074219 330.347656 C 188.074219 330.347656 188.078125 330.347656 188.078125 330.347656 L 272.636719 305.589844 C 272.667969 305.582031 272.683594 305.550781 272.714844 305.539062 C 272.796875 305.5 272.859375 305.453125 272.925781 305.390625 C 272.953125 305.363281 272.996094 305.355469 273.019531 305.324219 L 324.460938 237.363281 C 324.542969 237.253906 324.578125 237.128906 324.59375 237.003906 C 324.597656 236.988281 324.609375 236.976562 324.609375 236.960938 Z M 323.164062 236.320312 L 300.914062 241.953125 L 326.925781 180.761719 Z M 232.886719 227.652344 L 150.90625 198.753906 L 212.738281 154.148438 Z M 212.738281 151.738281 L 151.082031 111.335938 L 231.246094 88.363281 Z M 211.855469 152.945312 L 150.058594 197.527344 L 150.058594 112.449219 Z M 148.566406 197.785156 L 78.433594 163.300781 L 148.566406 112.527344 Z M 163.757812 280.460938 L 96.902344 242.929688 L 148.8125 200.359375 Z M 150.28125 200.117188 L 232.4375 229.074219 L 165.292969 280.5625 Z M 233.335938 230.265625 L 237.667969 291.832031 L 166.636719 281.410156 Z M 234.292969 227.132812 L 214.179688 153.765625 L 282.578125 160.613281 Z M 283.53125 161.835938 L 298.699219 242.078125 L 235.257812 228.34375 Z M 299.917969 240.492188 L 284.917969 161.160156 L 326.972656 176.835938 Z M 283.636719 158.28125 L 234.0625 88.410156 L 298.71875 102.457031 Z M 282.386719 159.09375 L 214.140625 152.261719 L 232.628906 88.957031 Z M 150.289062 110.011719 L 161.902344 53.339844 L 230.285156 87.085938 Z M 148.753906 110.09375 L 96.296875 92.523438 L 160.292969 53.765625 Z M 147.703125 111.3125 L 78.207031 161.621094 L 95.0625 93.683594 Z M 76.570312 162.027344 L 49.769531 137.589844 L 93.179688 95.089844 Z M 93.871094 92.328125 L 55.734375 129.660156 L 99.179688 73.164062 Z M 76.105469 163.621094 L 50.898438 223.984375 L 49.460938 139.320312 Z M 76.792969 165.835938 L 94.550781 241.90625 L 51.207031 227.109375 Z M 78.078125 164.785156 L 147.945312 199.140625 L 96.035156 241.710938 Z M 162.847656 281.664062 L 103.746094 298.339844 L 96.519531 244.429688 Z M 164.382812 282.78125 L 186.410156 328.3125 L 105.566406 299.375 Z M 188.15625 328.5 L 166.066406 282.835938 L 236.558594 293.179688 Z M 239.117188 291.222656 L 234.796875 229.769531 L 297.96875 243.445312 Z M 297.71875 245.570312 L 272.027344 303.9375 L 239.972656 292.449219 Z M 300.175781 243.679688 L 321.996094 238.15625 L 275.671875 299.355469 Z M 284.839844 159.539062 L 299.761719 104.300781 L 326.683594 175.132812 Z M 237.894531 53.640625 L 296.679688 100.484375 L 233.175781 86.6875 Z M 186.546875 46.078125 L 226.339844 51.496094 L 167.503906 51.496094 Z M 236.480469 52.988281 L 231.75 86.148438 L 164.5625 52.988281 Z M 95.753906 91.109375 L 101.527344 70.28125 L 155.53125 54.90625 Z M 46.144531 197.308594 L 48.289062 158.300781 L 49.285156 217.035156 Z M 75.125 273.492188 L 55.390625 235.839844 L 98.328125 294.050781 Z M 52.226562 229.035156 L 94.90625 243.605469 L 101.996094 296.511719 Z M 108.433594 301.984375 L 180.21875 327.679688 L 136.386719 320.851562 Z M 238.59375 293.539062 L 270.019531 304.804688 L 191.765625 327.714844 Z M 238.59375 293.539062 " fill-opacity="1" fill-rule="nonzero"/></g><path fill="#2c3892" d="M 87.675781 289.191406 C 81.992188 285.464844 81.835938 285.304688 77.863281 281.214844 C 77.835938 281.175781 77.804688 281.136719 77.769531 281.089844 L 74.238281 276.699219 C 69.429688 270.199219 69.335938 270.078125 67 266.472656 C 62.78125 259.644531 62.703125 259.511719 60.703125 255.78125 C 59.578125 253.5625 58.070312 250.609375 57 248.363281 C 59.269531 253.078125 63.921875 255.730469 69.320312 258.796875 C 70.796875 262.289062 72.417969 265.695312 74.1875 269.007812 C 78.019531 276.199219 82.527344 282.953125 87.675781 289.191406 " fill-opacity="1" fill-rule="nonzero"/><g clip-path="url(#id2)"><path fill="#2c3892" d="M 60.949219 230.707031 C 48.796875 222.914062 47.011719 217.164062 45.582031 212.546875 L 45.027344 209.355469 C 43.878906 201.253906 43.878906 201.253906 43.546875 197.066406 C 43.058594 188.828125 43.058594 188.828125 43.0625 184.601562 C 43.117188 181.941406 43.195312 178.390625 43.335938 175.734375 C 43.984375 182.6875 47.707031 186.074219 57.710938 191.546875 C 58.089844 191.757812 58.480469 191.96875 58.882812 192.183594 C 58.628906 195.796875 58.5 199.421875 58.492188 203.046875 C 58.476562 212.550781 59.308594 221.804688 60.949219 230.707031 " fill-opacity="1" fill-rule="nonzero"/></g><path fill="#2c3892" d="M 78.695312 124.378906 C 72.375 136.117188 67.46875 148.480469 64.074219 161.191406 C 51.878906 152.246094 48.777344 146.585938 50.804688 136.960938 L 51.128906 136 C 53.910156 128.367188 53.910156 128.367188 55.578125 124.539062 C 58.921875 117.285156 58.984375 117.152344 60.980469 113.449219 C 62.339844 111.042969 64.160156 107.847656 65.589844 105.488281 C 63.15625 110.699219 64.109375 114.613281 69.578125 118.855469 C 71.824219 120.601562 74.839844 122.402344 78.695312 124.378906 " fill-opacity="1" fill-rule="nonzero"/><path fill="#2c3892" d="M 124.902344 69.621094 C 115.339844 76.988281 106.414062 85.597656 98.324219 95.316406 C 97.71875 96.046875 97.117188 96.78125 96.523438 97.519531 C 82.570312 86.824219 86.75 79.167969 93.34375 72.484375 C 96.078125 70.140625 99.734375 67.019531 102.601562 64.835938 C 109.0625 60.113281 109.3125 59.925781 113.363281 57.339844 C 115.714844 55.914062 118.863281 54.027344 121.253906 52.671875 C 115.996094 55.835938 114.28125 58.621094 114.667969 61.070312 C 115.21875 64.542969 119.996094 67.351562 124.902344 69.621094 " fill-opacity="1" fill-rule="nonzero"/><path fill="#51ade5" d="M 167.003906 50.199219 C 147.59375 52.144531 129.191406 55.75 114.667969 61.070312 C 105.960938 64.253906 98.644531 68.054688 93.34375 72.484375 C 96.078125 70.140625 99.734375 67.019531 102.601562 64.835938 C 109.0625 60.113281 109.3125 59.925781 113.363281 57.339844 C 115.714844 55.914062 118.863281 54.027344 121.253906 52.671875 C 131.984375 47.386719 148.25 44.195312 166.496094 42.902344 C 166.382812 43.699219 166.320312 44.519531 166.320312 45.351562 C 166.320312 47.027344 166.5625 48.65625 167.003906 50.199219 " fill-opacity="1" fill-rule="nonzero"/><g clip-path="url(#id3)"><path fill="#51ade5" d="M 183.984375 52.039062 C 180.292969 52.039062 177.300781 49.042969 177.300781 45.351562 C 177.300781 41.660156 180.292969 38.664062 183.984375 38.664062 C 187.679688 38.664062 190.671875 41.660156 190.671875 45.351562 C 190.671875 49.042969 187.679688 52.039062 183.984375 52.039062 Z M 282.4375 62.847656 L 279.957031 61.082031 C 263.890625 50.128906 230.101562 43.59375 196.683594 42.425781 C 195.359375 36.636719 190.179688 32.316406 183.984375 32.316406 C 176.789062 32.316406 170.953125 38.152344 170.953125 45.351562 C 170.953125 52.550781 176.789062 58.382812 183.984375 58.382812 C 190.089844 58.382812 195.210938 54.1875 196.628906 48.523438 C 232.40625 47.996094 266.75 52.867188 282.4375 62.847656 " fill-opacity="1" fill-rule="nonzero"/></g><g clip-path="url(#id4)"><path fill="#51ade5" d="M 180.917969 293.730469 C 179.917969 291.519531 179.355469 289.066406 179.355469 286.480469 C 179.355469 284.054688 179.847656 281.742188 180.734375 279.640625 C 172.34375 279.542969 163.808594 279.800781 155.339844 280.453125 C 119.15625 283.246094 89.222656 293.378906 105.003906 306.667969 C 107.199219 308.238281 110.183594 310.253906 112.425781 311.761719 C 114.542969 313.105469 117.425781 314.8125 119.582031 316.09375 C 125.652344 319.542969 132.011719 322.402344 138.605469 324.65625 C 130.902344 320.464844 129.5625 316.496094 129.796875 313.902344 C 130.703125 303.714844 153.574219 296.652344 180.917969 293.730469 " fill-opacity="1" fill-rule="nonzero"/></g><path fill="#51ade5" d="M 197.019531 293.167969 C 193.324219 293.167969 190.332031 290.171875 190.332031 286.480469 C 190.332031 282.789062 193.324219 279.796875 197.019531 279.796875 C 200.710938 279.796875 203.703125 282.789062 203.703125 286.480469 C 203.703125 290.171875 200.710938 293.167969 197.019531 293.167969 Z M 271.832031 305.585938 C 269.28125 294.289062 242.71875 284.988281 208.984375 281.3125 C 206.984375 276.6875 202.378906 273.449219 197.019531 273.449219 C 189.820312 273.449219 183.984375 279.28125 183.984375 286.480469 C 183.984375 293.679688 189.820312 299.515625 197.019531 299.515625 C 202.148438 299.515625 206.585938 296.546875 208.710938 292.238281 C 236.265625 292.160156 262.628906 296.296875 271.832031 305.585938 " fill-opacity="1" fill-rule="nonzero"/><path fill="#51ade5" d="M 199.097656 88.398438 C 199.097656 90.023438 199.25 91.617188 199.53125 93.167969 C 148.941406 94.753906 97.019531 103.8125 69.578125 118.855469 C 59.890625 124.167969 53.253906 130.222656 50.804688 136.960938 L 51.128906 136 C 53.910156 128.367188 53.910156 128.367188 55.578125 124.539062 C 58.921875 117.285156 58.984375 117.152344 60.980469 113.449219 C 62.339844 111.042969 64.160156 107.847656 65.589844 105.488281 C 81.5625 85.21875 141.214844 78 200.078125 81.238281 C 199.441406 83.519531 199.097656 85.917969 199.097656 88.398438 " fill-opacity="1" fill-rule="nonzero"/><path fill="#51ade5" d="M 225.828125 99.734375 C 219.566406 99.734375 214.488281 94.65625 214.488281 88.398438 C 214.488281 82.132812 219.566406 77.058594 225.828125 77.058594 C 232.09375 77.058594 237.167969 82.132812 237.167969 88.398438 C 237.167969 94.65625 232.09375 99.734375 225.828125 99.734375 Z M 330.539062 121.007812 C 322.371094 104.769531 288.714844 92.835938 247.828125 86.277344 C 246.761719 75.066406 237.320312 66.292969 225.828125 66.292969 C 213.621094 66.292969 203.726562 76.1875 203.726562 88.398438 C 203.726562 100.601562 213.621094 110.5 225.828125 110.5 C 236.097656 110.5 244.726562 103.5 247.210938 94.011719 C 287.425781 96.902344 320.582031 105.589844 330.539062 121.007812 " fill-opacity="1" fill-rule="nonzero"/><path fill="#51ade5" d="M 74.1875 269.007812 C 74.027344 269.824219 73.941406 270.660156 73.929688 271.496094 C 73.875 276.03125 76.691406 279.734375 77.769531 281.089844 L 74.238281 276.699219 C 69.429688 270.199219 69.335938 270.078125 67 266.472656 C 62.78125 259.644531 62.703125 259.511719 60.703125 255.78125 C 59.578125 253.5625 58.070312 250.609375 57 248.363281 C 50.824219 227.84375 102.585938 216.0625 162.351562 214.949219 C 161.574219 217.449219 161.15625 220.097656 161.15625 222.847656 C 161.15625 226.359375 161.84375 229.71875 163.085938 232.796875 C 116.722656 238.359375 77.699219 251.066406 74.1875 269.007812 " fill-opacity="1" fill-rule="nonzero"/><path fill="#51ade5" d="M 187.890625 234.183594 C 181.628906 234.183594 176.550781 229.105469 176.550781 222.84375 C 176.550781 216.582031 181.628906 211.503906 187.890625 211.503906 C 194.152344 211.503906 199.230469 216.582031 199.230469 222.84375 C 199.230469 229.105469 194.152344 234.183594 187.890625 234.183594 Z M 305.765625 238.714844 C 283.914062 226.398438 247.410156 219.074219 208.988281 216.230469 C 206.175781 207.253906 197.796875 200.742188 187.890625 200.742188 C 175.683594 200.742188 165.789062 210.636719 165.789062 222.84375 C 165.789062 235.050781 175.683594 244.949219 187.890625 244.949219 C 197.695312 244.949219 206.007812 238.558594 208.898438 229.714844 C 259.003906 228.890625 307.304688 236.464844 322.125 254.597656 C 320.207031 249.21875 314.398438 243.578125 305.765625 238.714844 " fill-opacity="1" fill-rule="nonzero"/><g clip-path="url(#id5)"><path fill="#51ade5" d="M 109.699219 172.015625 C 87.5 177.054688 69.074219 183.640625 57.710938 191.546875 C 50.316406 196.683594 45.90625 202.382812 45.386719 208.582031 C 45.285156 209.769531 45.382812 211.371094 45.582031 212.546875 L 45.027344 209.355469 C 43.878906 201.253906 43.878906 201.253906 43.546875 197.066406 C 43.058594 188.828125 43.058594 188.828125 43.0625 184.601562 C 43.117188 181.941406 43.195312 178.390625 43.335938 175.734375 C 46.613281 160.933594 71.691406 151.222656 106.105469 146.265625 C 105.34375 149.035156 104.929688 151.953125 104.929688 154.960938 C 104.929688 161.203125 106.675781 167.042969 109.699219 172.015625 " fill-opacity="1" fill-rule="nonzero"/></g><g clip-path="url(#id6)"><path fill="#51ade5" d="M 137.855469 169.480469 C 129.839844 169.480469 123.339844 162.980469 123.339844 154.960938 C 123.339844 146.945312 129.839844 140.445312 137.855469 140.445312 C 145.875 140.445312 152.371094 146.945312 152.371094 154.960938 C 152.371094 162.980469 145.875 169.480469 137.855469 169.480469 Z M 340.488281 183.882812 C 320.605469 156.351562 236.800781 141.832031 163.1875 142.351562 C 158.550781 133.054688 148.953125 126.667969 137.855469 126.667969 C 122.230469 126.667969 109.558594 139.335938 109.558594 154.960938 C 109.558594 170.589844 122.230469 183.257812 137.855469 183.257812 C 150.558594 183.257812 161.304688 174.886719 164.882812 163.359375 C 239.238281 155.976562 324.1875 162.582031 343.050781 188.386719 C 342.425781 186.964844 341.398438 185.144531 340.488281 183.882812 " fill-opacity="1" fill-rule="nonzero"/></g></svg>